# xmcd
#
# Track frame offsets:
#	182
#	14022
#	28907
#	41407
#	54195
#	68790
#	84587
#	96687
#	107775
#	120142
#	135180
#	153637
#	166082
#	180170
#	192392
#	202987
#
# Disc length: 2899 seconds
#
# Revision: 2
# Processed by: cddbd v1.4PL0 Copyright (c) Steve Scherf et al.
# Submitted via: MusicWizard 6.0.1
#
DISCID=ca0b5110
DTITLE=Various Artist - The Story Of The Blues Vol. 1
DYEAR=1989
DGENRE=Blues
TTITLE0=Joe Turner - Shake Rattle And Roll
TTITLE1=Richard Berry - Doin' It
TTITLE2=Ray Charles - Goin' Down Slow
TTITLE3=Louis Jordan - Choo Choo Ch'Boogie
TTITLE4=Bishop "Gatemouth" Moore - Ain't Mad At You, Pretty Baby
TTITLE5=Eddie "Cleanhead" Vinson - I'm The Midnight Creeper
TTITLE6=Little Walter Juke - My Babe
TTITLE7=Bo Diddley - Bo Diddley
TTITLE8=Joe Liggins and The Honeydrippers - Pink Champage
TTITLE9=Pee Wee Crayton - Texas Hop
TTITLE10=Charles Brown - Driftin' Blues
TTITLE11=Amos Milburn - Chicken Shack Boogie
TTITLE12=Boy Milton - R.M. Blues
TTITLE13=Johnny Otis - Willy And The Hand Jive
TTITLE14=Etta James - Tell Mama
TTITLE15=Muddy Waters - Baby, Please Don't Go
EXTD=
EXTT0=
EXTT1=
EXTT2=
EXTT3=
EXTT4=
EXTT5=
EXTT6=
EXTT7=
EXTT8=
EXTT9=
EXTT10=
EXTT11=
EXTT12=
EXTT13=
EXTT14=
EXTT15=
PLAYORDER=
